<svg viewBox="0 0 11 11" stroke="currentColor" xmlns="http://www.w3.org/2000/svg">
<path d="M7.11721 8.22356C8.25695 8.09871 9.356 7.85126 10.3984 7.49588C9.53408 6.60984 9.00797 5.43685 9.00797 4.15039V3.76105C9.00805 3.75195 9.00809 3.74284 9.00809 3.73372C9.00809 1.89277 7.39205 0.400391 5.39856 0.400391C3.40507 0.400391 1.78902 1.89277 1.78902 3.73372L1.7889 4.15039C1.7889 5.43685 1.2628 6.60984 0.398438 7.49588C1.44095 7.85128 2.54007 8.09875 3.6799 8.22359M7.11721 8.22356C6.5536 8.2853 5.98003 8.31706 5.39844 8.31706C4.81692 8.31706 4.24343 8.28531 3.6799 8.22359M7.11721 8.22356C7.17313 8.38435 7.20332 8.55578 7.20332 8.73372C7.20332 9.6542 6.3953 10.4004 5.39856 10.4004C4.40181 10.4004 3.59379 9.6542 3.59379 8.73372C3.59379 8.55579 3.62398 8.38437 3.6799 8.22359" stroke="#BEBEBE" stroke-width="0.8" stroke-linecap="round" stroke-linejoin="round"/>
</svg>
