<svg viewBox="0 0 11 11" stroke="currentColor" xmlns="http://www.w3.org/2000/svg">
<path d="M2.48177 0.400391V1.65039M8.3151 0.400391V1.65039M0.398438 9.15039V2.90039C0.398438 2.21003 0.958082 1.65039 1.64844 1.65039H9.14844C9.83879 1.65039 10.3984 2.21003 10.3984 2.90039V9.15039M0.398438 9.15039C0.398438 9.84075 0.958082 10.4004 1.64844 10.4004H9.14844C9.83879 10.4004 10.3984 9.84075 10.3984 9.15039M0.398438 9.15039V4.98372C0.398438 4.29337 0.958082 3.73372 1.64844 3.73372H9.14844C9.83879 3.73372 10.3984 4.29337 10.3984 4.98372V9.15039M5.39844 5.81706H5.4026V5.82122H5.39844V5.81706ZM5.39844 7.06706H5.4026V7.07122H5.39844V7.06706ZM5.39844 8.31706H5.4026V8.32122H5.39844V8.31706ZM4.14844 7.06706H4.1526V7.07122H4.14844V7.06706ZM4.14844 8.31706H4.1526V8.32122H4.14844V8.31706ZM2.89844 7.06706H2.9026V7.07122H2.89844V7.06706ZM2.89844 8.31706H2.9026V8.32122H2.89844V8.31706ZM6.64844 5.81706H6.6526V5.82122H6.64844V5.81706ZM6.64844 7.06706H6.6526V7.07122H6.64844V7.06706ZM6.64844 8.31706H6.6526V8.32122H6.64844V8.31706ZM7.89844 5.81706H7.9026V5.82122H7.89844V5.81706ZM7.89844 7.06706H7.9026V7.07122H7.89844V7.06706Z" stroke="#BEBEBE" stroke-width="0.8" stroke-linecap="round" stroke-linejoin="round"/>
</svg>
