<svg viewBox="0 0 18 19" stroke="currentColor" xmlns="http://www.w3.org/2000/svg">
<path d="M6.5386 1.29015C6.62901 0.747687 7.09834 0.350098 7.64829 0.350098H10.2423C10.7922 0.350098 11.2615 0.747688 11.3519 1.29015L11.5655 2.5712C11.6278 2.94524 11.8778 3.25681 12.2095 3.44046C12.2837 3.48152 12.357 3.52393 12.4295 3.56767C12.7545 3.76394 13.1498 3.82496 13.5054 3.69175L14.7223 3.23587C15.2372 3.04294 15.8162 3.25061 16.0912 3.72687L17.3882 5.97331C17.6632 6.44958 17.5535 7.05483 17.1289 7.40436L16.1246 8.23117C15.8321 8.47198 15.6871 8.84382 15.6941 9.22263C15.6949 9.26502 15.6953 9.30751 15.6953 9.3501C15.6953 9.39268 15.6949 9.43516 15.6941 9.47755C15.6871 9.85636 15.8321 10.2282 16.1246 10.469L17.1289 11.2958C17.5535 11.6454 17.6632 12.2506 17.3882 12.7269L16.0912 14.9733C15.8162 15.4496 15.2372 15.6572 14.7223 15.4643L13.5054 15.0084C13.1498 14.8752 12.7545 14.9362 12.4295 15.1325C12.357 15.1763 12.2837 15.2187 12.2095 15.2597C11.8778 15.4434 11.6278 15.755 11.5655 16.129L11.3519 17.41C11.2615 17.9525 10.7922 18.3501 10.2423 18.3501H7.64829C7.09834 18.3501 6.62901 17.9525 6.5386 17.41L6.32509 16.129C6.26275 15.755 6.01277 15.4434 5.68101 15.2597C5.60683 15.2187 5.53351 15.1763 5.46108 15.1325C5.13605 14.9363 4.74071 14.8752 4.38515 15.0084L3.16828 15.4643C2.65329 15.6573 2.0743 15.4496 1.79933 14.9733L0.502347 12.7269C0.227375 12.2506 0.337028 11.6454 0.761608 11.2958L1.76596 10.469C2.05847 10.2282 2.20347 9.85638 2.19645 9.47757C2.19567 9.43517 2.19527 9.39268 2.19527 9.3501C2.19527 9.30752 2.19567 9.26503 2.19645 9.22264C2.20347 8.84383 2.05847 8.47199 1.76596 8.23119L0.761608 7.40437C0.337027 7.05484 0.227374 6.44959 0.502346 5.97332L1.79933 3.72689C2.0743 3.25062 2.65329 3.04296 3.16828 3.23589L4.38514 3.69176C4.7407 3.82497 5.13603 3.76395 5.46107 3.56768C5.5335 3.52394 5.60683 3.48152 5.68101 3.44046C6.01277 3.25681 6.26275 2.94524 6.32509 2.5712L6.5386 1.29015Z" stroke="#BEBEBE" stroke-width="0.7" stroke-linecap="round" stroke-linejoin="round"/>
<path d="M11.945 9.35002C11.945 11.0069 10.6019 12.35 8.94504 12.35C7.28819 12.35 5.94504 11.0069 5.94504 9.35002C5.94504 7.69316 7.28819 6.35002 8.94504 6.35002C10.6019 6.35002 11.945 7.69316 11.945 9.35002Z" stroke="#BEBEBE" stroke-width="0.7" stroke-linecap="round" stroke-linejoin="round"/>
</svg>
