<svg viewBox="0 0 11 11" stroke="currentColor" xmlns="http://www.w3.org/2000/svg">
<path d="M8.47502 9.07815C8.60195 9.09 8.73033 9.09604 8.85996 9.09604C9.39758 9.09604 9.91372 8.99214 10.3935 8.80112C10.3968 8.75498 10.3984 8.70834 10.3984 8.66126C10.3984 7.70076 9.70964 6.92213 8.85996 6.92213C8.53811 6.92213 8.23933 7.03386 7.99234 7.22487M8.47502 9.07815C8.47505 9.08411 8.47505 9.09008 8.47505 9.09604C8.47505 9.22647 8.4687 9.35522 8.45633 9.48192C7.55542 10.0663 6.51128 10.4004 5.3981 10.4004C4.28493 10.4004 3.24079 10.0663 2.33988 9.48192C2.32751 9.35522 2.32115 9.22647 2.32115 9.09604C2.32115 9.0901 2.32117 9.08415 2.32119 9.07822M8.47502 9.07815C8.47198 8.39609 8.29528 7.76046 7.99234 7.22487M7.99234 7.22487C7.44572 6.25847 6.4881 5.61778 5.3981 5.61778C4.30824 5.61778 3.35073 6.25831 2.80408 7.22452M2.80408 7.22452C2.55717 7.03372 2.25857 6.92213 1.93691 6.92213C1.08724 6.92213 0.398438 7.70076 0.398438 8.66126C0.398438 8.70834 0.400092 8.75498 0.40334 8.80112C0.883156 8.99214 1.3993 9.09604 1.93691 9.09604C2.06632 9.09604 2.19448 9.09002 2.32119 9.07822M2.80408 7.22452C2.50101 7.76019 2.32422 8.39598 2.32119 9.07822M6.93658 2.13952C6.93658 3.10002 6.24778 3.87865 5.3981 3.87865C4.54843 3.87865 3.85963 3.10002 3.85963 2.13952C3.85963 1.17903 4.54843 0.400391 5.3981 0.400391C6.24778 0.400391 6.93658 1.17903 6.93658 2.13952ZM10.0135 3.87865C10.0135 4.59902 9.49693 5.183 8.85967 5.183C8.22241 5.183 7.70581 4.59902 7.70581 3.87865C7.70581 3.15828 8.22241 2.5743 8.85967 2.5743C9.49693 2.5743 10.0135 3.15828 10.0135 3.87865ZM3.09039 3.87865C3.09039 4.59902 2.57379 5.183 1.93654 5.183C1.29928 5.183 0.78268 4.59902 0.78268 3.87865C0.78268 3.15828 1.29928 2.5743 1.93654 2.5743C2.57379 2.5743 3.09039 3.15828 3.09039 3.87865Z" stroke="#BEBEBE" stroke-width="0.8" stroke-linecap="round" stroke-linejoin="round"/>
</svg>
